HIERARCHY
ROOT SpineBase
{
  OFFSET 0.000000 0.000000 0.000000
  CHANNELS 6 Xposition Yposition Zposition Zrotation Xrotation Yrotation
  JOINT SpineMid
  {
    OFFSET 0.000000 30.551956 0.000000
    CHANNELS 3 Zrotation Xrotation Yrotation
    JOINT SpineShoulder
    {
      OFFSET -0.146378 22.744543 -0.720003
      CHANNELS 3 Zrotation Xrotation Yrotation
      JOINT Neck
      {
        OFFSET -0.098543 7.528131 -0.549297
        CHANNELS 3 Zrotation Xrotation Yrotation
        JOINT Head
        {
          OFFSET 1.828185 11.799413 0.166455
          CHANNELS 3 Zrotation Xrotation Yrotation
          End Site
          {
            OFFSET 0 0 0
          }
        }
      }
      JOINT ShoulderLeft
      {
        OFFSET -16.288835 -2.766714 -2.782174
        CHANNELS 3 Zrotation Xrotation Yrotation
        JOINT ElbowLeft
        {
          OFFSET -3.719389 -23.950058 -2.202660
          CHANNELS 3 Zrotation Xrotation Yrotation
          JOINT WristLeft
          {
            OFFSET 0.164874 -20.560795 -6.772212
            CHANNELS 3 Zrotation Xrotation Yrotation
            JOINT HandLeft
            {
              OFFSET 1.265698 -4.243005 -1.379396
              CHANNELS 3 Zrotation Xrotation Yrotation
              JOINT HandTipLeft
              {
                OFFSET -0.074425 -5.784070 -1.896572
                CHANNELS 3 Zrotation Xrotation Yrotation
                End Site
                {
                  OFFSET 0 0 0
                }
              }
              JOINT ThumbLeft
              {
                OFFSET 3.709200 0.287118 -0.519796
                CHANNELS 3 Zrotation Xrotation Yrotation
                End Site
                {
                  OFFSET 0 0 0
                }
              }
            }
          }
        }
      }
      JOINT ShoulderRight
      {
        OFFSET 16.541426 -3.672763 0.746999
        CHANNELS 3 Zrotation Xrotation Yrotation
        JOINT ElbowRight
        {
          OFFSET 2.823742 -26.006176 0.620317
          CHANNELS 3 Zrotation Xrotation Yrotation
          JOINT WristRight
          {
            OFFSET -1.815288 -20.286662 -7.447973
            CHANNELS 3 Zrotation Xrotation Yrotation
            JOINT HandRight
            {
              OFFSET -2.205398 -3.333454 -0.710814
              CHANNELS 3 Zrotation Xrotation Yrotation
              JOINT HandTipRight
              {
                OFFSET 1.040438 -4.960267 -2.132540
                CHANNELS 3 Zrotation Xrotation Yrotation
                End Site
                {
                  OFFSET 0 0 0
                }
              }
              JOINT ThumbRight
              {
                OFFSET 1.987817 -0.633762 -3.606667
                CHANNELS 3 Zrotation Xrotation Yrotation
                End Site
                {
                  OFFSET 0 0 0
                }
              }
            }
          }
        }
      }
    }
  }
  JOINT HipLeft
  {
    OFFSET -7.854550 0.348729 -3.870313
    CHANNELS 3 Zrotation Xrotation Yrotation
    JOINT KneeLeft
    {
      OFFSET -5.949538 -26.529090 -0.526728
      CHANNELS 3 Zrotation Xrotation Yrotation
      JOINT AnkleLeft
      {
        OFFSET -1.576335 -33.600839 0.790734
        CHANNELS 3 Zrotation Xrotation Yrotation
        JOINT FootLeft
        {
          OFFSET -3.826020 -9.816122 -7.985260
          CHANNELS 3 Zrotation Xrotation Yrotation
          End Site
          {
            OFFSET 0 0 0
          }
        }
      }
    }
  }
  JOINT HipRight
  {
    OFFSET 6.848171 1.199223 -3.137109
    CHANNELS 3 Zrotation Xrotation Yrotation
    JOINT KneeRight
    {
      OFFSET 1.981665 -29.391715 5.339591
      CHANNELS 3 Zrotation Xrotation Yrotation
      JOINT AnkleRight
      {
        OFFSET 4.369937 -34.773239 8.039309
        CHANNELS 3 Zrotation Xrotation Yrotation
        JOINT FootRight
        {
          OFFSET 4.721651 -6.593964 -8.574626
          CHANNELS 3 Zrotation Xrotation Yrotation
          End Site
          {
            OFFSET 0 0 0
          }
        }
      }
    }
  }
}
MOTION
Frames: 13
Frame Time: 0.033333
57.313618 71.559099 392.509261 0.423554 3.779990 -0.972806 -1.185080 1.140135 0.936102 -0.077759 0.575750 0.004793 4.108674 -0.950274 -0.543112 0.000000 0.000000 0.000000 -41.322627 44.403970 10.987337 13.061208 -36.749225 10.380999 18.062904 -39.859540 -13.898355 0.835116 60.009893 3.953240 0.000000 0.000000 0.000000 0.000000 0.000000 0.000000 2.839664 -3.306530 0.469592 -4.419343 3.598457 0.069649 3.410317 -6.848519 0.351393 -14.975114 -6.009013 3.640441 0.000000 0.000000 0.000000 0.000000 0.000000 0.000000 -0.246195 -1.364334 0.406257 -0.531385 -7.430500 0.732821 -11.988388 18.086125 6.350750 0.000000 0.000000 0.000000 3.065981 -4.967256 1.739130 -4.981735 0.723570 -0.905021 2.836486 1.743194 -0.379709 0.000000 0.000000 0.000000
58.089113 71.524530 392.173815 -0.836976 5.662533 0.297935 -1.003017 1.297667 -0.299356 -0.058804 0.571118 -0.020996 4.777371 -1.121385 -0.652150 0.000000 0.000000 0.000000 -44.534383 45.598309 12.462432 10.144125 -35.521955 9.933192 18.492317 -45.572111 -15.623167 -7.416963 68.022611 12.996287 0.000000 0.000000 0.000000 0.000000 0.000000 0.000000 3.671882 -3.814700 0.783678 -5.875630 3.984465 0.330112 6.130563 -6.683378 -1.407528 -16.062733 -5.132733 5.821610 0.000000 0.000000 0.000000 0.000000 0.000000 0.000000 0.616203 -3.011010 -0.821974 -0.861087 -8.139351 0.723099 -11.615096 18.296932 6.757654 0.000000 0.000000 0.000000 3.564574 -7.181920 0.485597 -4.896961 0.536508 -0.945188 2.997378 2.667464 0.624709 0.000000 0.000000 0.000000
59.165514 71.381662 392.013532 -2.275042 7.747311 1.231975 -0.653895 1.247786 -1.127670 -0.087774 0.470234 -0.056970 4.606681 -0.488583 -0.927654 0.000000 0.000000 0.000000 -45.301690 44.864334 12.298941 7.946052 -32.165860 10.023491 19.934542 -53.486579 -17.742258 -16.426057 66.945116 21.871920 0.000000 0.000000 0.000000 0.000000 0.000000 0.000000 3.910890 -3.377127 1.125671 -6.532994 3.614278 0.354059 10.512691 -7.916538 -2.259472 -21.734341 -4.901384 8.305421 0.000000 0.000000 0.000000 0.000000 0.000000 0.000000 1.430150 -4.907105 -1.637890 -1.282324 -8.599184 0.659915 -10.648287 16.414725 7.398279 0.000000 0.000000 0.000000 3.807571 -9.448979 -0.486415 -4.452567 0.145445 -0.957030 3.436532 1.646254 -0.051268 0.000000 0.000000 0.000000
60.304580 71.223202 391.996123 -3.738377 9.845893 1.921826 -0.352694 1.185756 -1.650024 -0.115923 0.406541 -0.096144 4.314815 -0.549608 -1.097694 0.000000 0.000000 0.000000 -41.107378 41.226145 9.154017 4.007227 -25.382353 10.130758 23.508506 -60.026135 -17.244423 -27.801096 62.551449 31.448281 0.000000 0.000000 0.000000 0.000000 0.000000 0.000000 3.887335 -2.406197 1.514011 -6.609520 2.591648 0.145925 13.652701 -9.054688 -2.817831 -22.498770 -4.224456 9.063350 0.000000 0.000000 0.000000 0.000000 0.000000 0.000000 2.327200 -6.868320 -2.122799 -2.027453 -8.700565 0.544078 -10.287211 16.375043 8.074030 0.000000 0.000000 0.000000 3.987798 -11.719937 -1.216840 -4.033741 0.082952 -0.933104 1.635735 0.848910 2.805136 0.000000 0.000000 0.000000
61.615148 70.953696 392.074926 -5.180162 11.810604 1.921639 -0.031235 0.901398 -1.432435 -0.100025 0.312857 -0.130466 1.927445 0.494266 -1.596424 0.000000 0.000000 0.000000 -35.632903 36.098738 5.703660 -9.621100 -7.863160 12.333047 11.398330 -63.801528 -24.072415 -0.015228 51.102628 11.595103 0.000000 0.000000 0.000000 0.000000 0.000000 0.000000 2.939109 -0.691978 1.832442 -4.953419 0.753175 -0.323903 14.824202 -10.849628 -2.255019 -21.972052 -0.260665 9.641548 0.000000 0.000000 0.000000 0.000000 0.000000 0.000000 3.083322 -8.790402 -1.857512 -2.668654 -8.595351 0.394742 -9.026345 16.049815 8.083855 0.000000 0.000000 0.000000 3.903541 -13.808796 -1.389666 -3.209381 0.405403 -0.779701 2.204971 -0.673869 2.103371 0.000000 0.000000 0.000000
63.004287 70.644197 392.314045 -6.356935 13.463860 0.413324 0.191940 0.662818 0.295047 -0.096629 0.300134 -0.157283 -1.365086 1.240081 -2.143869 0.000000 0.000000 0.000000 -30.270021 30.308284 2.793655 -22.355960 6.024823 17.204828 6.479013 -63.987408 -26.751829 7.667852 43.437407 6.720679 0.000000 0.000000 0.000000 0.000000 0.000000 0.000000 1.362707 1.484346 2.140471 -2.269885 -1.925257 -0.811526 17.891161 -9.925774 -3.365010 -26.099374 -1.844138 11.463372 0.000000 0.000000 0.000000 0.000000 0.000000 0.000000 3.391029 -10.474313 -0.143796 -2.778337 -8.167099 0.233478 -8.311165 17.322084 7.980534 0.000000 0.000000 0.000000 3.856075 -15.189385 -0.116430 -2.207399 0.472689 -0.623961 4.340053 -0.667794 0.271278 0.000000 0.000000 0.000000
64.402121 70.292779 392.545909 -7.397647 14.786127 -2.206710 0.132391 0.566024 3.097941 -0.138187 0.357658 -0.195148 -4.553862 2.898964 -2.708568 0.000000 0.000000 0.000000 -26.238996 25.242784 1.011756 -34.431096 13.728913 22.381062 1.752202 -47.223353 -18.979460 23.889310 25.054560 -3.101421 0.000000 0.000000 0.000000 0.000000 0.000000 0.000000 0.203121 3.073384 2.463687 0.643360 -3.841523 -1.113809 18.796043 -9.086276 -4.299256 -27.941180 -4.084049 12.386233 0.000000 0.000000 0.000000 0.000000 0.000000 0.000000 3.719188 -11.948063 2.666708 -2.716912 -7.533619 0.057097 -6.462135 16.875958 7.398388 0.000000 0.000000 0.000000 4.026788 -16.077938 2.253137 -1.023168 0.814939 -0.375070 6.530846 -0.324458 -1.338210 0.000000 0.000000 0.000000
65.689881 69.939984 392.889059 -8.359647 15.763189 -5.986527 0.072774 0.516332 7.050196 -0.093274 0.324984 -0.220270 -7.938083 4.468567 -3.170123 0.000000 0.000000 0.000000 -21.467904 18.270532 -0.605893 -39.814011 18.794523 26.460232 -1.057399 -39.590934 -14.948251 27.110182 16.780729 -5.172849 0.000000 0.000000 0.000000 0.000000 0.000000 0.000000 -1.519821 4.516956 2.675738 4.239942 -5.918916 -1.096915 20.472742 -9.434394 -3.930158 -30.117163 -1.944392 13.233756 0.000000 0.000000 0.000000 0.000000 0.000000 0.000000 4.515430 -13.209836 6.711035 -2.723053 -6.571367 -0.127237 -4.930024 16.150521 7.089198 0.000000 0.000000 0.000000 4.612829 -16.145533 5.886242 0.100080 0.625937 -0.196001 7.009958 -1.718324 -2.107249 0.000000 0.000000 0.000000
66.655638 69.670268 393.289867 -9.171673 16.329714 -10.465194 -0.010891 0.545492 11.668095 -0.057473 0.327606 -0.240722 -11.145839 5.999490 -3.496054 0.000000 0.000000 0.000000 -15.436121 9.377052 -1.741225 -43.013765 23.855796 29.862257 -2.013945 -30.370709 -7.413948 23.597456 8.464336 -7.157328 0.000000 0.000000 0.000000 0.000000 0.000000 0.000000 -2.982170 5.666292 2.863270 7.247619 -7.967023 -0.879375 21.904611 -8.683364 -4.329994 -30.059535 -2.398218 12.945774 0.000000 0.000000 0.000000 0.000000 0.000000 0.000000 5.853005 -13.996147 11.531598 -2.939766 -5.414313 -0.284397 -3.368518 15.569544 6.548192 0.000000 0.000000 0.000000 5.661529 -15.377671 10.428195 0.901585 0.199198 -0.077010 8.605643 0.568657 -1.952778 0.000000 0.000000 0.000000
67.585068 69.480062 393.583637 -9.826466 16.780779 -14.719360 -0.236066 0.517747 16.012935 -0.049620 0.340762 -0.266794 -14.032124 7.113118 -3.711645 0.000000 0.000000 0.000000 -10.720993 2.415572 -1.962567 -42.845241 28.915124 31.762122 -6.987945 -29.359144 -8.676235 21.102257 3.938838 -8.131554 0.000000 0.000000 0.000000 0.000000 0.000000 0.000000 -4.353853 6.155445 2.929136 10.208023 -9.265437 -0.496469 19.696154 -8.481853 -4.150164 -28.579848 -3.729165 12.297125 0.000000 0.000000 0.000000 0.000000 0.000000 0.000000 7.234394 -14.685933 16.137882 -3.162725 -4.202245 -0.425771 -1.923700 15.528409 5.901448 0.000000 0.000000 0.000000 6.464377 -14.397727 14.724915 1.462978 -0.311107 -0.007353 10.090139 2.880766 -1.529148 0.000000 0.000000 0.000000
68.216994 69.390554 393.762980 -10.061782 16.814581 -18.023859 -0.491994 0.451834 19.310973 -0.032176 0.318632 -0.283009 -16.912095 8.095594 -3.802366 0.000000 0.000000 0.000000 -7.338257 -1.802787 -1.746697 -32.119680 29.638376 25.600759 -16.292807 -18.590496 -3.085035 20.980283 -8.634345 -12.024140 0.000000 0.000000 0.000000 0.000000 0.000000 0.000000 -5.184054 6.052826 2.850938 12.077691 -10.087250 -0.172024 16.180903 -8.836530 -3.239614 -25.248589 -3.750331 10.821477 0.000000 0.000000 0.000000 0.000000 0.000000 0.000000 8.281656 -14.993710 19.698470 -3.602634 -3.091316 -0.533603 -0.654886 14.954854 5.490211 0.000000 0.000000 0.000000 6.789411 -13.189221 18.040881 1.473491 -2.029363 -0.277709 10.570946 2.928808 -1.968231 0.000000 0.000000 0.000000
68.861876 69.358548 393.975465 -10.411036 16.978483 -19.902363 -0.465257 0.345915 21.239582 -0.033701 0.199947 -0.308605 -19.355685 9.009873 -3.807693 0.000000 0.000000 0.000000 -6.241707 -3.299281 -1.589991 -13.594308 23.620617 14.858024 -26.571448 -12.610470 0.161880 22.963649 -20.625755 -14.284179 0.000000 0.000000 0.000000 0.000000 0.000000 0.000000 -6.292470 6.159604 2.773539 13.198863 -11.792136 0.285544 13.666833 -7.305298 -3.716190 -22.962965 -6.029063 9.858835 0.000000 0.000000 0.000000 0.000000 0.000000 0.000000 8.940497 -15.369111 21.759634 -3.798444 -2.064374 -0.592710 0.063746 14.059468 5.513840 0.000000 0.000000 0.000000 6.865740 -12.437089 19.904626 1.410607 -3.172531 -0.490754 11.359780 3.677300 -1.920669 0.000000 0.000000 0.000000
69.293770 69.369769 394.204319 -10.527293 16.847896 -20.825096 -0.371940 0.039234 22.127993 -0.040635 0.014349 -0.338668 -20.417257 9.541423 -3.563557 0.000000 0.000000 0.000000 -7.392699 -0.928972 -1.520335 6.747870 8.018759 6.183495 -31.622411 -16.420355 -1.189758 27.041179 -19.065028 -11.343073 0.000000 0.000000 0.000000 0.000000 0.000000 0.000000 -7.147404 6.214326 2.673812 14.423776 -11.425492 0.542150 10.163707 -10.240481 -1.169389 -21.486117 -6.578382 7.410765 0.000000 0.000000 0.000000 0.000000 0.000000 0.000000 9.271422 -15.315602 22.758129 -4.325723 -1.249091 -0.604389 1.414338 12.652902 5.132180 0.000000 0.000000 0.000000 6.842268 -11.800232 20.832325 1.074723 -3.028382 -0.538928 10.650085 4.171178 0.335348 0.000000 0.000000 0.000000
